<?xml version="1.0" encoding="UTF-8"?>
<svg width="20px" height="20px" viewBox="0 0 20 20" version="1.1" xmlns="http://www.w3.org/2000/svg" xmlns:xlink="http://www.w3.org/1999/xlink">
    <!-- Generator: Sketch 52.2 (67145) - http://www.bohemiancoding.com/sketch -->
    <title>Shape</title>
    <desc>Created with Sketch.</desc>
    <g id="Page-1" stroke="none" stroke-width="1" fill="none" fill-rule="evenodd">
        <g id="Artboard" transform="translate(-113.000000, -114.000000)" fill="#FFFFFF">
            <path d="M123,114 C117.48,114 113,118.48 113,124 C113,129.52 117.48,134 123,134 C128.52,134 133,129.52 133,124 C133,118.48 128.52,114 123,114 L123,114 Z M122,131.93 C118.05,131.44 115,128.08 115,124 C115,123.38 115.08,122.79 115.21,122.21 L120,127 L120,128 C120,129.1 120.9,130 122,130 L122,131.93 L122,131.93 Z M128.9,129.39 C128.64,128.58 127.9,128 127,128 L126,128 L126,125 C126,124.45 125.55,124 125,124 L119,124 L119,122 L121,122 C121.55,122 122,121.55 122,121 L122,119 L124,119 C125.1,119 126,118.1 126,117 L126,116.59 C128.93,117.78 131,120.65 131,124 C131,126.08 130.2,127.97 128.9,129.39 L128.9,129.39 Z" id="Shape"></path>
        </g>
    </g>
</svg>